<svg width="302" height="106" viewBox="0 0 302 106" fill="none" xmlns="http://www.w3.org/2000/svg">
<path d="M49.0027 37.299C46.1614 37.299 45.3399 38.5592 45.3399 41.3386V45.9495H52.9187L52.159 53.3987H45.3429V76.0054H36.2478V53.3987H30.1206V45.9495H36.2478V41.4653C36.2478 33.9513 39.2775 29.9823 47.7307 29.9823C49.5022 29.9781 51.2721 30.0834 53.0306 30.2973V37.3078L49.0027 37.299Z" fill="#1877F2"/>
<path d="M53.5488 60.0294C53.5488 51.6321 57.5266 45.3076 65.8621 45.3076C70.4082 45.3076 73.1847 47.6454 74.5126 50.5486V45.9495H83.2249V76.0054H74.5126V71.4593C73.2495 74.3654 70.4082 76.6384 65.8621 76.6384C57.5266 76.6384 53.5488 70.3228 53.5488 61.9167V60.0294ZM62.641 62.0521C62.641 66.5334 64.281 69.5013 68.512 69.5013C72.2395 69.5013 74.1328 66.7866 74.1328 62.4938V59.4758C74.1328 55.183 72.2395 52.4683 68.512 52.4683C64.281 52.4683 62.641 55.4362 62.641 59.9175V62.0521Z" fill="#1877F2"/>
<path d="M102.169 45.3164C105.702 45.3164 109.05 46.076 110.881 47.3362L108.861 53.7785C106.967 52.8763 104.897 52.4019 102.799 52.3887C97.8729 52.3887 95.7323 55.23 95.7323 60.0941V61.8607C95.7323 66.7248 97.8787 69.5661 102.799 69.5661C104.897 69.5529 106.967 69.0784 108.861 68.1763L110.881 74.6156C109.05 75.8787 105.705 76.6384 102.169 76.6384C91.4954 76.6384 86.6343 70.891 86.6343 61.6723V60.2825C86.6343 51.0638 91.4954 45.3164 102.169 45.3164Z" fill="#1877F2"/>
<path d="M112.08 62.1257V59.4758C112.08 50.9519 116.941 45.3429 126.857 45.3429C136.203 45.3429 140.307 51.0255 140.307 59.3609V64.1602H121.169C121.36 68.2646 123.192 70.096 128.235 70.096C131.648 70.096 135.246 69.4012 137.899 68.2646L139.562 74.4919C137.162 75.758 132.237 76.7031 127.882 76.7031C116.372 76.7002 112.08 70.9587 112.08 62.1257ZM121.172 58.2097H132.16V57.453C132.16 54.1701 130.835 51.5643 126.86 51.5643C122.753 51.5672 121.172 54.1583 121.172 58.1979V58.2097Z" fill="#1877F2"/>
<path d="M174.011 61.9255C174.011 70.3228 169.971 76.6473 161.645 76.6473C157.098 76.6473 153.942 74.3742 152.679 71.4682V76.0142H144.093V30.8568L153.185 30.0323V50.1128C154.51 47.4629 157.416 45.3135 161.647 45.3135C169.983 45.3135 174.014 51.6291 174.014 60.0352L174.011 61.9255ZM164.919 59.8409C164.919 55.6099 163.279 52.4536 158.921 52.4536C155.193 52.4536 153.174 55.1035 153.174 59.3993V62.5556C153.174 66.8485 155.193 69.5013 158.921 69.5013C163.279 69.5013 164.919 66.345 164.919 62.114V59.8409Z" fill="#1877F2"/>
<path d="M177.052 61.7341V60.2207C177.052 51.5673 181.978 45.3164 192.018 45.3164C202.059 45.3164 206.987 51.5673 206.987 60.2207V61.7341C206.987 70.3846 202.062 76.6384 192.021 76.6384C181.981 76.6384 177.052 70.3846 177.052 61.7341ZM197.892 59.5877C197.892 55.6098 196.249 52.4535 192.004 52.4535C187.758 52.4535 186.13 55.6098 186.13 59.5877V62.3671C186.13 66.3449 187.773 69.5013 192.004 69.5013C196.235 69.5013 197.892 66.3449 197.892 62.3671V59.5877Z" fill="#1877F2"/>
<path d="M210.012 61.7341V60.2207C210.012 51.5673 214.938 45.3164 224.978 45.3164C235.018 45.3164 239.944 51.5673 239.944 60.2207V61.7341C239.944 70.3846 235.018 76.6384 224.978 76.6384C214.938 76.6384 210.012 70.3846 210.012 61.7341ZM230.852 59.5877C230.852 55.6098 229.209 52.4535 224.978 52.4535C220.747 52.4535 219.107 55.6098 219.107 59.5877V62.3671C219.107 66.3449 220.747 69.5013 224.978 69.5013C229.209 69.5013 230.852 66.3449 230.852 62.3671V59.5877Z" fill="#1877F2"/>
<path d="M252.446 60.2826L261.411 45.9495H271.072L261.664 60.789L271.451 76.0054H261.791L252.446 61.2837V76.0054H243.351V30.8568L252.446 30.0323V60.2826Z" fill="#1877F2"/>
</svg>
